<svg xmlns="http://www.w3.org/2000/svg" xmlns:xlink="http://www.w3.org/1999/xlink" width="1344" zoomAndPan="magnify" viewBox="0 0 1008 1295.99994" height="1728" preserveAspectRatio="xMidYMid meet" version="1.0"><defs><clipPath id="fb00a29959"><path d="M 309.835938 389 L 698.335938 389 L 698.335938 906 L 309.835938 906 Z M 309.835938 389 " clip-rule="nonzero"/></clipPath></defs><g clip-path="url(#fb00a29959)"><path fill="#198754" d="M 528.0625 893.796875 C 579.964844 828.890625 698.335938 671.582031 698.335938 583.222656 C 698.335938 476.058594 611.328125 389.113281 504.085938 389.113281 C 396.84375 389.113281 309.835938 476.058594 309.835938 583.222656 C 309.835938 671.582031 428.207031 828.890625 480.109375 893.796875 C 492.550781 909.265625 515.621094 909.265625 528.0625 893.796875 Z M 504.085938 518.519531 C 505.144531 518.519531 506.203125 518.542969 507.261719 518.597656 C 508.320312 518.648438 509.378906 518.726562 510.433594 518.832031 C 511.488281 518.933594 512.539062 519.0625 513.585938 519.21875 C 514.632812 519.375 515.679688 519.554688 516.71875 519.761719 C 517.757812 519.96875 518.789062 520.199219 519.820312 520.457031 C 520.847656 520.714844 521.867188 520.996094 522.882812 521.304688 C 523.894531 521.613281 524.902344 521.945312 525.898438 522.300781 C 526.898438 522.65625 527.886719 523.039062 528.863281 523.445312 C 529.84375 523.847656 530.8125 524.277344 531.769531 524.730469 C 532.726562 525.183594 533.675781 525.660156 534.609375 526.160156 C 535.542969 526.65625 536.464844 527.179688 537.375 527.722656 C 538.28125 528.269531 539.175781 528.835938 540.058594 529.421875 C 540.941406 530.011719 541.804688 530.621094 542.65625 531.25 C 543.507812 531.882812 544.34375 532.535156 545.164062 533.207031 C 545.980469 533.878906 546.785156 534.570312 547.570312 535.28125 C 548.355469 535.992188 549.121094 536.722656 549.871094 537.46875 C 550.621094 538.21875 551.351562 538.984375 552.0625 539.769531 C 552.773438 540.554688 553.464844 541.355469 554.136719 542.175781 C 554.808594 542.992188 555.460938 543.828125 556.09375 544.679688 C 556.722656 545.527344 557.335938 546.394531 557.921875 547.273438 C 558.511719 548.15625 559.078125 549.050781 559.625 549.957031 C 560.167969 550.867188 560.691406 551.785156 561.191406 552.722656 C 561.691406 553.65625 562.164062 554.601562 562.617188 555.558594 C 563.070312 556.515625 563.5 557.484375 563.90625 558.460938 C 564.3125 559.4375 564.695312 560.425781 565.050781 561.425781 C 565.40625 562.421875 565.738281 563.425781 566.046875 564.441406 C 566.355469 565.453125 566.636719 566.472656 566.894531 567.5 C 567.152344 568.527344 567.382812 569.558594 567.589844 570.597656 C 567.796875 571.636719 567.980469 572.679688 568.132812 573.726562 C 568.289062 574.773438 568.417969 575.824219 568.523438 576.878906 C 568.628906 577.933594 568.707031 578.988281 568.757812 580.046875 C 568.808594 581.105469 568.835938 582.164062 568.835938 583.222656 C 568.835938 584.28125 568.808594 585.339844 568.757812 586.398438 C 568.707031 587.453125 568.628906 588.511719 568.523438 589.5625 C 568.421875 590.617188 568.289062 591.667969 568.136719 592.714844 C 567.980469 593.761719 567.796875 594.804688 567.589844 595.84375 C 567.382812 596.882812 567.152344 597.917969 566.894531 598.945312 C 566.636719 599.96875 566.355469 600.992188 566.046875 602.003906 C 565.738281 603.015625 565.40625 604.023438 565.050781 605.019531 C 564.695312 606.015625 564.3125 607.003906 563.90625 607.984375 C 563.5 608.960938 563.070312 609.929688 562.617188 610.886719 C 562.164062 611.84375 561.691406 612.789062 561.191406 613.722656 C 560.691406 614.65625 560.167969 615.578125 559.625 616.484375 C 559.078125 617.394531 558.511719 618.289062 557.921875 619.167969 C 557.335938 620.050781 556.722656 620.914062 556.09375 621.765625 C 555.460938 622.617188 554.808594 623.449219 554.136719 624.269531 C 553.464844 625.085938 552.773438 625.890625 552.0625 626.671875 C 551.351562 627.457031 550.621094 628.226562 549.871094 628.972656 C 549.121094 629.722656 548.355469 630.453125 547.570312 631.164062 C 546.785156 631.875 545.980469 632.566406 545.164062 633.238281 C 544.34375 633.910156 543.507812 634.5625 542.65625 635.191406 C 541.804688 635.824219 540.941406 636.433594 540.058594 637.019531 C 539.175781 637.609375 538.28125 638.175781 537.375 638.71875 C 536.464844 639.265625 535.542969 639.785156 534.609375 640.285156 C 533.675781 640.785156 532.726562 641.261719 531.769531 641.710938 C 530.8125 642.164062 529.84375 642.59375 528.863281 643 C 527.886719 643.40625 526.898438 643.785156 525.898438 644.144531 C 524.902344 644.5 523.894531 644.832031 522.882812 645.140625 C 521.867188 645.445312 520.847656 645.730469 519.820312 645.984375 C 518.789062 646.242188 517.757812 646.476562 516.71875 646.683594 C 515.679688 646.886719 514.632812 647.070312 513.585938 647.226562 C 512.539062 647.378906 511.488281 647.507812 510.433594 647.613281 C 509.378906 647.71875 508.320312 647.796875 507.261719 647.847656 C 506.203125 647.898438 505.144531 647.925781 504.085938 647.925781 C 503.027344 647.925781 501.96875 647.898438 500.910156 647.847656 C 499.851562 647.796875 498.792969 647.71875 497.738281 647.613281 C 496.683594 647.507812 495.632812 647.378906 494.585938 647.226562 C 493.535156 647.070312 492.492188 646.886719 491.453125 646.683594 C 490.414062 646.476562 489.378906 646.242188 488.351562 645.984375 C 487.324219 645.730469 486.304688 645.445312 485.289062 645.140625 C 484.277344 644.832031 483.269531 644.5 482.273438 644.144531 C 481.273438 643.785156 480.285156 643.40625 479.308594 643 C 478.328125 642.59375 477.359375 642.164062 476.402344 641.710938 C 475.445312 641.261719 474.496094 640.785156 473.5625 640.285156 C 472.628906 639.785156 471.707031 639.265625 470.796875 638.71875 C 469.886719 638.175781 468.992188 637.609375 468.113281 637.019531 C 467.230469 636.433594 466.363281 635.824219 465.515625 635.191406 C 464.664062 634.5625 463.828125 633.910156 463.007812 633.238281 C 462.191406 632.566406 461.386719 631.875 460.601562 631.164062 C 459.816406 630.453125 459.050781 629.722656 458.300781 628.972656 C 457.550781 628.226562 456.820312 627.457031 456.109375 626.671875 C 455.398438 625.890625 454.707031 625.085938 454.03125 624.269531 C 453.359375 623.449219 452.710938 622.617188 452.078125 621.765625 C 451.445312 620.914062 450.835938 620.050781 450.246094 619.167969 C 449.660156 618.289062 449.09375 617.394531 448.546875 616.484375 C 448.003906 615.578125 447.480469 614.65625 446.980469 613.722656 C 446.480469 612.789062 446.003906 611.84375 445.550781 610.886719 C 445.097656 609.929688 444.671875 608.960938 444.265625 607.984375 C 443.859375 607.003906 443.476562 606.015625 443.121094 605.019531 C 442.761719 604.023438 442.429688 603.015625 442.125 602.003906 C 441.816406 600.992188 441.535156 599.96875 441.277344 598.945312 C 441.019531 597.917969 440.785156 596.882812 440.578125 595.84375 C 440.371094 594.804688 440.191406 593.761719 440.035156 592.714844 C 439.882812 591.667969 439.75 590.617188 439.648438 589.5625 C 439.542969 588.511719 439.464844 587.453125 439.414062 586.398438 C 439.363281 585.339844 439.335938 584.28125 439.335938 583.222656 C 439.335938 582.164062 439.363281 581.105469 439.414062 580.046875 C 439.464844 578.988281 439.542969 577.933594 439.648438 576.878906 C 439.75 575.824219 439.882812 574.773438 440.035156 573.726562 C 440.191406 572.679688 440.371094 571.636719 440.578125 570.597656 C 440.785156 569.558594 441.019531 568.527344 441.277344 567.5 C 441.535156 566.472656 441.816406 565.453125 442.125 564.441406 C 442.429688 563.425781 442.761719 562.421875 443.121094 561.425781 C 443.476562 560.425781 443.859375 559.4375 444.265625 558.460938 C 444.671875 557.484375 445.097656 556.515625 445.550781 555.558594 C 446.003906 554.601562 446.480469 553.65625 446.980469 552.722656 C 447.480469 551.785156 448.003906 550.867188 448.546875 549.957031 C 449.09375 549.050781 449.660156 548.15625 450.246094 547.273438 C 450.835938 546.394531 451.445312 545.527344 452.078125 544.679688 C 452.710938 543.828125 453.359375 542.992188 454.03125 542.175781 C 454.707031 541.355469 455.398438 540.554688 456.109375 539.769531 C 456.820312 538.984375 457.550781 538.21875 458.300781 537.46875 C 459.050781 536.722656 459.816406 535.992188 460.601562 535.28125 C 461.386719 534.570312 462.191406 533.878906 463.007812 533.207031 C 463.828125 532.535156 464.664062 531.882812 465.515625 531.25 C 466.363281 530.621094 467.230469 530.011719 468.113281 529.421875 C 468.992188 528.835938 469.886719 528.269531 470.796875 527.722656 C 471.707031 527.179688 472.628906 526.65625 473.5625 526.160156 C 474.496094 525.660156 475.445312 525.183594 476.402344 524.730469 C 477.359375 524.277344 478.328125 523.847656 479.308594 523.445312 C 480.285156 523.039062 481.273438 522.65625 482.273438 522.300781 C 483.269531 521.945312 484.277344 521.613281 485.289062 521.304688 C 486.304688 520.996094 487.324219 520.714844 488.351562 520.457031 C 489.378906 520.199219 490.414062 519.96875 491.453125 519.761719 C 492.492188 519.554688 493.535156 519.375 494.585938 519.21875 C 495.632812 519.0625 496.683594 518.933594 497.738281 518.832031 C 498.792969 518.726562 499.851562 518.648438 500.910156 518.597656 C 501.96875 518.542969 503.027344 518.519531 504.085938 518.519531 Z M 504.085938 518.519531 " fill-opacity="1" fill-rule="nonzero"/></g></svg>